# xmcd
#
# Track frame offsets:
#	200
#	20882
#	29930
#	45625
#	61912
#	80012
#	96607
#	107462
#	118067
#	136007
#	150755
#	168045
#	183537
#	193457
#
# Disc length: 2764 seconds
#
# Revision: 2
# Processed by: cddbd v1.4PL0 Copyright (c) Steve Scherf et al.
# Submitted via: CDmax 1.9
#
DISCID=c00aca0e
DTITLE=Tailgators - It's a Hog Groove!
DYEAR=1996
DGENRE=Blues
TTITLE0=Hog Groove
TTITLE1=Tico Tico
TTITLE2=Stop That Rappin'
TTITLE3=Talk To Me
TTITLE4=Howlin' For My Darlin'
TTITLE5=Shake That Zydeco
TTITLE6=Honey
TTITLE7=Button Box
TTITLE8=Might Make You Blind
TTITLE9=Deuces Wild
TTITLE10=Snap Bean
TTITLE11=Keep Your Hands Off Her
TTITLE12=Onion Eyed Joe
TTITLE13=The Lies You Make
EXTD=LABEL =Upstart Records\nID =019\nUPC =601143-0019-25\nCOPYRIGHT =1996
EXTT0=
EXTT1=
EXTT2=
EXTT3=
EXTT4=
EXTT5=
EXTT6=
EXTT7=
EXTT8=
EXTT9=
EXTT10=
EXTT11=
EXTT12=
EXTT13=
PLAYORDER=
